<svg version="1.1" xmlns="http://www.w3.org/2000/svg" width="32" height="32" viewBox="0 0 32 32">
<path fill="#fff" d="M8.533 12.373h1.92v-4.945l2.49-7.002h-2.084l-1.271 4.693h-0.128l-1.333-4.693h-2.065l2.473 7.223v4.723zM15.723 12.67c0.828 0 1.461-0.213 1.937-0.653s0.687-1.030 0.687-1.796v-4.61c0.001-0.025 0.002-0.055 0.002-0.085 0-0.627-0.271-1.191-0.702-1.582-0.465-0.401-1.073-0.644-1.738-0.644-0.039 0-0.078 0.001-0.117 0.003-0.822-0-1.52 0.213-2.010 0.612-0.47 0.381-0.768 0.959-0.768 1.606 0 0.014 0 0.027 0 0.041l-0 4.623c-0.001 0.019-0.001 0.041-0.001 0.063 0 0.688 0.29 1.308 0.755 1.745 0.487 0.423 1.125 0.681 1.824 0.681 0.046 0 0.092-0.001 0.138-0.003zM14.933 5.493c-0-0.002-0-0.005-0-0.007 0-0.186 0.082-0.353 0.213-0.466 0.14-0.113 0.32-0.181 0.515-0.181 0.013 0 0.025 0 0.038 0.001 0.012-0.001 0.027-0.001 0.043-0.001 0.19 0 0.364 0.068 0.498 0.181 0.116 0.1 0.19 0.248 0.19 0.414 0 0.021-0.001 0.041-0.003 0.061l0 4.857c0.004 0.029 0.006 0.062 0.006 0.096 0 0.181-0.067 0.346-0.178 0.473-0.136 0.132-0.322 0.213-0.527 0.213-0.012 0-0.025-0-0.037-0.001-0.012 0.001-0.028 0.002-0.044 0.002-0.201 0-0.383-0.082-0.513-0.215-0.125-0.138-0.202-0.322-0.202-0.524 0-0.015 0-0.031 0.001-0.046l-0-4.858zM18.987 21.385c-0.117 0.002-0.227 0.031-0.324 0.081-0.109 0.054-0.305 0.135-0.305 0.248v5.047c0 0.128 0.237 0.23 0.361 0.286 0.11 0.056 0.24 0.089 0.377 0.090 0.015 0.002 0.033 0.003 0.050 0.003 0.151 0 0.286-0.069 0.376-0.177 0.080-0.132 0.128-0.291 0.128-0.461 0-0.035-0.002-0.069-0.006-0.103l0-4.177c0.003-0.027 0.004-0.058 0.004-0.089 0-0.2-0.061-0.385-0.164-0.539-0.108-0.127-0.272-0.209-0.455-0.209-0.015 0-0.030 0.001-0.044 0.002zM21.133 12.587c0.393-0.011 0.759-0.117 1.079-0.296 0.353-0.182 0.628-0.463 1.055-0.826v0.909h1.707v-8.747h-1.707v6.669c-0.171 0.173-0.356 0.33-0.555 0.471-0.157 0.111-0.333 0.178-0.523 0.196-0.016 0.002-0.030 0.003-0.044 0.003-0.12 0-0.226-0.057-0.292-0.146-0.055-0.103-0.087-0.225-0.087-0.354 0-0.037 0.003-0.072 0.007-0.108l-0-6.731h-1.933v7.351c-0.002 0.035-0.004 0.076-0.004 0.117 0 0.399 0.125 0.768 0.338 1.071 0.211 0.256 0.535 0.422 0.897 0.422 0.021 0 0.043-0.001 0.064-0.002zM24.559 21.412c-0.018-0.002-0.040-0.003-0.062-0.003-0.189 0-0.357 0.089-0.464 0.228-0.114 0.142-0.14 0.387-0.14 0.729v0.887h1.28v-0.887c0-0.339-0.011-0.587-0.124-0.727-0.098-0.139-0.257-0.229-0.438-0.229-0.019 0-0.037 0.001-0.055 0.003zM26.155 15.36h-20.311c-3.228 0-5.843 2.517-5.843 5.743v4.693c0.002 3.191 2.59 5.777 5.781 5.777 0.022 0 0.043-0 0.065-0l20.308 0c0.018 0 0.039 0 0.060 0 3.19 0 5.777-2.582 5.786-5.77v-4.694c0-3.232-2.62-5.749-5.845-5.749zM10.027 18.987h-1.707v9.387h-1.92v-9.387h-1.92v-1.707h5.547v1.707zM15.36 28.373h-1.493v-0.964c-0.427 0.329-0.64 0.578-0.954 0.751-0.273 0.157-0.6 0.253-0.948 0.258-0.023 0.002-0.049 0.003-0.074 0.003-0.304 0-0.574-0.142-0.749-0.363-0.189-0.245-0.262-0.599-0.262-1.084v-6.707h1.493v6.146c-0 0.003-0 0.006-0 0.008 0 0.153 0.050 0.294 0.136 0.407 0.076 0.079 0.185 0.128 0.306 0.128 0.015 0 0.030-0.001 0.045-0.002 0.179-0.015 0.343-0.076 0.482-0.171 0.193-0.143 0.365-0.286 0.529-0.438l-0.004-6.079h1.493v8.107zM21.333 26.626c0.003 0.038 0.004 0.083 0.004 0.128 0 0.449-0.147 0.864-0.396 1.198-0.244 0.276-0.605 0.452-1.007 0.452-0.033 0-0.066-0.001-0.098-0.004-0.010 0.001-0.028 0.001-0.045 0.001-0.281 0-0.548-0.065-0.785-0.18-0.256-0.132-0.479-0.317-0.656-0.539l-0.003 0.691h-1.707v-11.093h1.707v3.573c0.187-0.225 0.408-0.412 0.658-0.557 0.224-0.125 0.477-0.196 0.747-0.198 0.026-0.002 0.056-0.003 0.086-0.003 0.439 0 0.83 0.201 1.088 0.516 0.273 0.35 0.407 0.856 0.407 1.517v4.495zM26.88 24.533h-2.987v1.434c0 0.427 0.023 0.723 0.13 0.89 0.106 0.151 0.28 0.248 0.476 0.248 0.021 0 0.042-0.001 0.062-0.003 0.018 0.003 0.042 0.004 0.066 0.004 0.179 0 0.339-0.085 0.441-0.216 0.105-0.142 0.108-0.451 0.108-0.927v-0.363h1.707v0.414c0 0.832-0.175 1.457-0.585 1.879s-0.996 0.625-1.803 0.625c-0.039 0.003-0.085 0.004-0.132 0.004-0.619 0-1.177-0.257-1.574-0.671-0.415-0.442-0.609-1.055-0.609-1.838v-3.627c-0.001-0.028-0.002-0.062-0.002-0.095 0-0.636 0.26-1.21 0.68-1.624 0.435-0.41 1.022-0.662 1.668-0.662 0.035 0 0.069 0.001 0.103 0.002 0.738-0 1.275 0.213 1.674 0.612s0.567 0.996 0.567 1.766v2.146z"></path>
</svg>
