<svg xmlns="http://www.w3.org/2000/svg" width="32" height="32" viewBox="0 0 32 32"><path fill="#fff" d="M8.533 12.373h1.92V7.428l2.49-7.002h-2.084L9.588 5.119H9.46L8.127.426H6.062l2.473 7.223v4.723zm7.19.297c.828 0 1.461-.213 1.937-.653s.687-1.03.687-1.796v-4.61l.002-.085a2.13 2.13 0 0 0-.702-1.582 2.653 2.653 0 0 0-1.855-.641c-.822 0-1.52.213-2.01.612-.47.381-.768.959-.768 1.606v4.664l-.001.063c0 .688.29 1.308.755 1.745a2.773 2.773 0 0 0 1.962.678zm-.79-7.177v-.007c0-.186.082-.353.213-.466a.819.819 0 0 1 .553-.18l.043-.001a.77.77 0 0 1 .498.181.545.545 0 0 1 .187.475v4.857a.716.716 0 0 1-.172.569.754.754 0 0 1-.527.213l-.037-.001a.715.715 0 0 1-.557-.213.779.779 0 0 1-.202-.524l.001-.046V5.492zm4.054 15.892a.733.733 0 0 0-.324.081c-.109.054-.305.135-.305.248v5.047c0 .128.237.23.361.286.11.056.24.089.377.09a.488.488 0 0 0 .426-.174.89.89 0 0 0 .122-.564v-4.177a.966.966 0 0 0-.16-.628.597.597 0 0 0-.499-.207zm2.146-8.798a2.335 2.335 0 0 0 1.079-.296c.353-.182.628-.463 1.055-.826v.909h1.707V3.627h-1.707v6.669c-.171.173-.356.33-.555.471a1.072 1.072 0 0 1-.567.199.362.362 0 0 1-.292-.146.754.754 0 0 1-.08-.462V3.627H19.84v7.351a1.855 1.855 0 0 0 .334 1.188 1.162 1.162 0 0 0 .961.42zm3.426 8.825a.584.584 0 0 0-.526.225c-.114.142-.14.387-.14.729v.887h1.28v-.887c0-.339-.011-.587-.124-.727a.534.534 0 0 0-.493-.226zm1.596-6.052H5.844c-3.228 0-5.843 2.517-5.843 5.743v4.693a5.781 5.781 0 0 0 5.781 5.777h20.433a5.786 5.786 0 0 0 5.786-5.77v-4.694c0-3.232-2.62-5.749-5.845-5.749zm-16.128 3.627H8.32v9.387H6.4v-9.387H4.48V17.28h5.547v1.707zm5.333 9.386h-1.493v-.964c-.427.329-.64.578-.954.751-.273.157-.6.253-.948.258a.953.953 0 0 1-.823-.36c-.189-.245-.262-.599-.262-1.084v-6.707h1.493v6.154c0 .153.05.294.136.407a.423.423 0 0 0 .306.128l.045-.002a.999.999 0 0 0 .482-.171c.193-.143.365-.286.529-.438l-.004-6.079h1.493v8.107zm5.973-1.747a1.998 1.998 0 0 1-.392 1.326 1.342 1.342 0 0 1-1.105.448l-.045.001c-.281 0-.548-.065-.785-.18a2.03 2.03 0 0 1-.656-.539l-.003.691H16.64V17.28h1.707v3.573c.187-.225.408-.412.658-.557.224-.125.477-.196.747-.198a1.402 1.402 0 0 1 1.174.513c.273.35.407.856.407 1.517v4.495zm5.547-2.093h-2.987v1.434c0 .427.023.723.13.89a.58.58 0 0 0 .538.245.559.559 0 0 0 .507-.212c.105-.142.108-.451.108-.927V25.6h1.707v.414c0 .832-.175 1.457-.585 1.879s-.996.625-1.803.625a2.173 2.173 0 0 1-1.706-.667c-.415-.442-.609-1.055-.609-1.838v-3.627a2.272 2.272 0 0 1 .678-1.719 2.424 2.424 0 0 1 1.771-.66c.738 0 1.275.213 1.674.612s.567.996.567 1.766v2.146z"/></svg>