<?xml version="1.0" standalone="no"?>
<!DOCTYPE svg PUBLIC "-//W3C//DTD SVG 20010904//EN"
 "http://www.w3.org/TR/2001/REC-SVG-20010904/DTD/svg10.dtd">
<svg version="1.0" xmlns="http://www.w3.org/2000/svg"
 width="512.000000pt" height="512.000000pt" viewBox="0 0 512.000000 512.000000"
 preserveAspectRatio="xMidYMid meet">
<metadata>
Created by potrace 1.11, written by Peter Selinger 2001-2013
</metadata>
<g transform="translate(0.000000,512.000000) scale(0.100000,-0.100000)"
fill="#000000" stroke="none">
<path d="M495 5030 c-2 -3 -4 -1116 -4 -2473 l0 -2466 160 -3 c93 -2 163 1
167 6 4 7 6 2005 2 3251 0 55 1 125 1 155 0 30 0 100 0 155 -1 92 -3 541 -2
575 1 82 0 601 -2 690 l-2 115 -158 1 c-87 1 -159 -2 -162 -6z"/>
<path d="M1259 5036 c-3 -2 -5 -1486 -3 -1486 1 0 17 26 35 58 29 51 126 199
139 212 3 3 29 34 59 70 124 149 328 328 491 432 184 118 454 231 650 272 14
3 48 11 75 17 28 6 61 12 75 14 14 2 52 7 85 11 77 10 420 10 505 0 36 -4 108
-17 160 -28 52 -11 106 -22 118 -24 76 -14 392 -135 411 -158 6 -7 -40 -108
-140 -306 -81 -162 -163 -325 -181 -362 -34 -73 -36 -74 -103 -44 -161 71
-341 109 -525 109 -82 0 -158 -7 -210 -18 -14 -3 -43 -8 -65 -11 -22 -4 -46
-11 -53 -16 -6 -6 -12 -8 -12 -4 0 3 -16 0 -35 -8 -19 -8 -35 -13 -35 -11 0 5
-60 -20 -150 -63 -331 -158 -584 -466 -676 -822 -9 -36 -18 -76 -20 -90 -1
-14 -6 -47 -10 -75 -12 -92 -7 -287 10 -365 3 -14 9 -41 13 -60 9 -46 10 -50
13 -52 1 -2 3 -10 5 -19 1 -9 19 -57 39 -106 20 -50 36 -93 36 -97 0 -4 8 -19
18 -34 10 -15 44 -66 76 -115 295 -446 872 -660 1396 -516 41 12 80 22 85 23
10 3 22 8 96 39 l36 15 36 -77 c20 -42 68 -143 107 -226 40 -82 78 -166 86
-185 8 -19 39 -84 68 -145 l53 -110 -61 -29 c-83 -39 -207 -87 -248 -95 -5 0
-9 -1 -10 -2 -32 -9 -215 -50 -248 -54 -19 -3 -53 -8 -75 -11 -128 -18 -361
-18 -520 1 -62 7 -249 42 -275 51 -8 3 -16 5 -17 5 -2 0 -17 5 -35 10 -18 6
-40 12 -48 14 -56 13 -304 116 -350 145 -8 5 -31 17 -50 27 -56 27 -208 131
-290 197 -126 102 -337 321 -364 377 -5 11 -13 19 -17 19 -4 0 -20 22 -35 50
-15 27 -30 50 -34 50 -4 0 -10 8 -14 18 -3 9 -15 33 -27 52 -12 19 -27 45 -34
57 -8 16 -11 -154 -11 -723 l0 -744 41 0 c1095 -3 3385 -4 3385 -1 0 2 -13 31
-29 65 -16 33 -56 120 -89 191 -60 131 -81 177 -179 384 -29 62 -53 115 -53
116 0 2 -27 61 -61 132 -33 70 -70 148 -81 173 -11 25 -40 86 -63 135 -23 50
-52 113 -65 140 -26 58 -101 219 -132 285 -12 25 -22 47 -23 50 -1 3 -17 39
-37 80 -19 41 -50 107 -68 145 -18 39 -55 117 -81 173 -27 57 -49 105 -49 107
0 5 -94 207 -119 256 -16 32 -17 40 -5 65 7 16 38 82 68 147 31 65 56 120 56
122 0 2 22 50 49 105 28 55 50 102 50 103 -1 1 18 43 41 92 23 50 51 110 62
135 12 25 47 101 79 169 33 68 59 125 59 126 0 2 22 49 49 106 26 57 60 129
74 159 14 30 46 100 72 155 26 55 60 127 75 160 47 102 290 625 336 724 24 51
44 97 44 101 0 4 7 13 16 21 12 10 13 14 2 19 -10 6 -3412 11 -3419 6z"/>
</g>
</svg>
